<svg xmlns="http://www.w3.org/2000/svg" width="32" height="32" viewBox="0 0 32 32" shape-rendering="crispEdges" style="image-rendering:pixelated"><rect x="10" y="7" width="12" height="1" fill="#07090d" /><rect x="8" y="8" width="16" height="1" fill="#07090d" /><rect x="7" y="9" width="18" height="14" fill="#07090d" /><rect x="8" y="23" width="16" height="2" fill="#07090d" /><rect x="9" y="25" width="14" height="2" fill="#07090d" /><rect x="10" y="27" width="12" height="2" fill="#07090d" /><rect x="11" y="8" width="10" height="1" fill="#39a7d7" /><rect x="9" y="9" width="14" height="1" fill="#39a7d7" /><rect x="8" y="10" width="16" height="5" fill="#39a7d7" /><rect x="8" y="15" width="16" height="3" fill="#3397c7" /><rect x="9" y="18" width="14" height="3" fill="#2e88b7" /><rect x="9" y="21" width="14" height="2" fill="#2777a1" /><rect x="10" y="23" width="12" height="2" fill="#2e88b7" /><rect x="11" y="25" width="10" height="2" fill="#3397c7" /><rect x="12" y="27" width="8" height="1" fill="#39a7d7" /><rect x="13" y="11" width="2" height="4" fill="#f4fbff" /><rect x="18" y="11" width="2" height="4" fill="#f4fbff" /><rect x="14" y="12" width="1" height="2" fill="#0d1622" /><rect x="19" y="12" width="1" height="2" fill="#0d1622" /><rect x="15" y="17" width="2" height="1" fill="#7fc9ec" /><rect x="14" y="18" width="1" height="1" fill="#7fc9ec" /><rect x="17" y="18" width="1" height="1" fill="#7fc9ec" /></svg>