<svg xmlns="http://www.w3.org/2000/svg" viewBox="0 0 160 180" role="img" aria-labelledby="title desc">
  <title id="title">Ghosted crest</title>
  <desc id="desc">An original fantasy-style crest with a shield, moon, and crossed blades.</desc>
  <defs>
    <linearGradient id="shield" x1="0" x2="0" y1="0" y2="1">
      <stop offset="0%" stop-color="#6b4a1f"/>
      <stop offset="100%" stop-color="#2b1c10"/>
    </linearGradient>
    <linearGradient id="metal" x1="0" x2="1" y1="0" y2="1">
      <stop offset="0%" stop-color="#f1d493"/>
      <stop offset="100%" stop-color="#a27134"/>
    </linearGradient>
  </defs>
  <path d="M80 8 136 28v48c0 42-22 72-56 96C46 148 24 118 24 76V28L80 8Z" fill="url(#shield)" stroke="#d9b36c" stroke-width="4"/>
  <path d="M55 58 38 126" stroke="url(#metal)" stroke-width="8" stroke-linecap="round"/>
  <path d="M105 58 122 126" stroke="url(#metal)" stroke-width="8" stroke-linecap="round"/>
  <path d="M80 42c18 0 32 15 32 33 0 4-1 8-2 12-6-12-18-20-32-20s-26 8-32 20c-1-4-2-8-2-12 0-18 14-33 32-33Z" fill="#e9d7ab" opacity=".9"/>
  <path d="M78 65c14 0 26 8 33 19-6 16-18 30-31 43-10-9-19-20-26-33 4-17 12-29 24-29Z" fill="#8fcb91" opacity=".85"/>
  <path d="M80 84 88 100l18 2-13 12 3 18-16-9-16 9 3-18-13-12 18-2 8-16Z" fill="url(#metal)"/>
</svg>
