<svg xmlns="http://www.w3.org/2000/svg" width="32" height="32" viewBox="0 0 32 32" shape-rendering="crispEdges" style="image-rendering: pixelated;">
  <rect x="12" y="4" width="8" height="1" fill="#000000"/>
  <rect x="10" y="5" width="12" height="1" fill="#000000"/>
  <rect x="9" y="6" width="14" height="1" fill="#000000"/>
  <rect x="8" y="7" width="16" height="1" fill="#000000"/>
  <rect x="7" y="8" width="18" height="12" fill="#000000"/>
  <rect x="8" y="20" width="16" height="2" fill="#000000"/>
  <rect x="9" y="22" width="14" height="2" fill="#000000"/>
  <rect x="10" y="24" width="12" height="2" fill="#000000"/>
  <rect x="11" y="26" width="10" height="2" fill="#000000"/>
  <rect x="12" y="28" width="8" height="1" fill="#000000"/>
  <rect x="11" y="5" width="10" height="1" fill="#53bee9"/>
  <rect x="10" y="6" width="12" height="1" fill="#53bee9"/>
  <rect x="9" y="7" width="14" height="1" fill="#53bee9"/>
  <rect x="8" y="8" width="16" height="5" fill="#53bee9"/>
  <rect x="8" y="13" width="16" height="3" fill="#46add8"/>
  <rect x="8" y="16" width="16" height="3" fill="#3798c4"/>
  <rect x="9" y="19" width="14" height="2" fill="#2f84ac"/>
  <rect x="10" y="21" width="12" height="2" fill="#3798c4"/>
  <rect x="11" y="23" width="10" height="2" fill="#46add8"/>
  <rect x="12" y="25" width="8" height="2" fill="#53bee9"/>
  <rect x="11" y="11" width="4" height="5" fill="#ffffff"/>
  <rect x="17" y="11" width="4" height="5" fill="#ffffff"/>
  <rect x="12" y="12" width="2" height="3" fill="#0a0d12"/>
  <rect x="18" y="12" width="2" height="3" fill="#0a0d12"/>
  <rect x="14" y="17" width="4" height="1" fill="#74d1f2"/>
  <rect x="13" y="18" width="1" height="1" fill="#74d1f2"/>
  <rect x="18" y="18" width="1" height="1" fill="#74d1f2"/>
  <rect x="14" y="19" width="4" height="1" fill="#22739d"/>
</svg>
